<svg fill="none" xmlns="http://www.w3.org/2000/svg">
<symbol viewBox="0 0 176 130" id="gaurantee-desktop">
  <g>
    <path d="M0 1.09565V12.7811H30.1268V128.906H43.2732V1.09703H0V1.09565ZM124.705 130C154.283 130 175.828 105.717 175.828 65C175.828 24.2833 154.283 0 124.705 0C95.1268 0 73.7638 24.2833 73.7638 65C73.7638 105.717 95.1254 130 124.705 130ZM124.705 117.949C102.43 117.949 87.0921 99.1428 87.0921 65C87.0921 30.8558 102.43 12.0507 124.705 12.0507C146.98 12.0507 162.318 30.8572 162.318 65C162.318 99.1428 146.98 117.949 124.705 117.949Z" fill="black"/>
    <path fill-rule="evenodd" clip-rule="evenodd" d="M143.014 49.5917C135.942 48.142 129.822 45.3202 124.824 41.2057C124.487 40.9265 124.005 40.9182 123.658 41.1807C121.885 42.5221 119.998 43.7344 118.045 44.787C114.34 46.8005 110.241 48.3489 105.861 49.389C105.438 49.489 105.139 49.8667 105.138 50.3013C105.117 56.6238 105.086 66.4499 105.086 67.0026C105.086 79.1311 119.47 90.5611 123.879 93.7744C124.043 93.8953 124.238 93.9564 124.433 93.9564C124.627 93.9564 124.822 93.8966 124.987 93.7758C125.512 93.3926 126.083 92.9663 126.689 92.4969C130.265 89.7168 135.299 85.2967 138.976 80.0323C140.941 77.2328 142.326 74.4791 143.094 71.8435C143.466 70.5479 143.692 69.2925 143.767 68.133L143.774 68.0316C143.802 67.6928 143.816 67.3456 143.816 67.0026C143.816 66.4569 143.766 50.5096 143.766 50.5096C143.764 50.0639 143.45 49.6792 143.014 49.5903V49.5917ZM141.899 67.8775C141.899 67.883 141.891 67.9927 141.891 67.9983C141.824 69.0398 141.622 70.1604 141.288 71.3227C140.579 73.7542 139.283 76.3233 137.438 78.9548C133.894 84.0275 129.008 88.3115 125.537 91.011C125.155 91.3068 124.787 91.5859 124.436 91.847C119.677 88.2948 106.971 77.7925 106.971 67.004C106.971 66.4722 107 57.3626 107.019 51.0442C111.291 49.9708 115.3 48.4239 118.944 46.4423C120.761 45.4619 122.529 44.3468 124.205 43.1206C129.152 47.0394 135.094 49.7778 141.89 51.2761C141.899 54.452 141.937 66.5291 141.937 67.0026C141.937 67.2942 141.924 67.5886 141.901 67.8761L141.899 67.8775Z" fill="black"/>
    <path d="M142.951 49.9084C139.39 49.1794 136.069 48.1032 133.008 46.6923C129.946 45.28 127.142 43.5303 124.62 41.4543C124.508 41.3626 124.375 41.3154 124.241 41.3126C124.107 41.3099 123.969 41.3515 123.854 41.439C122.961 42.1139 122.039 42.7582 121.093 43.3651C120.149 43.9719 119.183 44.5427 118.199 45.0717C116.333 46.0854 114.369 46.9825 112.323 47.7546C110.272 48.5295 108.137 49.1807 105.936 49.7043C105.797 49.7376 105.678 49.8154 105.596 49.9195C105.513 50.0264 105.461 50.1611 105.461 50.3028L105.41 67.0027C105.411 71.5075 107.437 75.9276 110.195 79.8547C114.768 86.3702 121.34 91.5249 124.069 93.5134C124.123 93.5523 124.182 93.5815 124.241 93.6009C124.302 93.6204 124.368 93.6315 124.433 93.6315C124.498 93.6315 124.564 93.6218 124.625 93.6023C124.684 93.5829 124.744 93.5537 124.798 93.5134C125.051 93.3301 125.323 93.1288 125.615 92.9108C125.887 92.7066 126.179 92.4845 126.492 92.2428C128.516 90.6681 131.008 88.5685 133.45 86.0911C135.306 84.2067 137.136 82.1043 138.713 79.8491C139.686 78.4591 140.516 77.0843 141.197 75.7304C141.876 74.3806 142.406 73.0517 142.784 71.7561C142.967 71.1145 143.115 70.4882 143.224 69.8855C143.334 69.2787 143.409 68.6844 143.445 68.1136L143.452 68.0095C143.466 67.8303 143.477 67.6623 143.483 67.5082C143.488 67.3582 143.492 67.1888 143.492 67.0041L143.444 50.5125C143.444 50.3667 143.391 50.2292 143.303 50.1223C143.216 50.0153 143.092 49.9376 142.951 49.9084ZM133.279 46.1049C136.295 47.4963 139.571 48.5559 143.08 49.2752C143.374 49.3349 143.627 49.4946 143.805 49.7126C143.982 49.932 144.088 50.2111 144.089 50.5097L144.141 67.0041C144.141 67.1638 144.137 67.3401 144.13 67.5332C144.123 67.7206 144.112 67.897 144.099 68.0581L144.092 68.1581C144.055 68.7482 143.977 69.3662 143.862 70.0008C143.746 70.6368 143.595 71.2839 143.408 71.9338C143.016 73.2725 142.47 74.6389 141.775 76.022C141.079 77.4051 140.233 78.8076 139.243 80.2199C137.642 82.5098 135.788 84.64 133.911 86.5452C131.439 89.0517 128.927 91.1694 126.89 92.7539L126.002 93.4274L125.177 94.037C125.068 94.1175 124.948 94.1772 124.825 94.2175C124.697 94.2592 124.564 94.28 124.433 94.28C124.301 94.28 124.169 94.2592 124.041 94.2175C123.918 94.1772 123.797 94.1161 123.689 94.0356C120.931 92.0248 114.29 86.8146 109.666 80.2268C106.84 76.2025 104.764 71.6588 104.764 67.0027L104.817 50.3014C104.818 50.007 104.92 49.7334 105.09 49.5182C105.263 49.3016 105.506 49.1405 105.789 49.0738C107.969 48.5559 110.077 47.9129 112.096 47.1492C114.118 46.3854 116.055 45.5008 117.892 44.5024C118.862 43.9789 119.814 43.4165 120.745 42.8193C121.675 42.2222 122.585 41.5862 123.465 40.921C123.698 40.7461 123.978 40.66 124.254 40.6655C124.532 40.6711 124.807 40.7683 125.033 40.9544C127.509 42.9929 130.265 44.7135 133.279 46.1035V46.1049ZM142.223 67.9053L142.215 68.0206C142.181 68.551 142.112 69.1037 142.008 69.6745C141.904 70.2452 141.768 70.827 141.6 71.4117C141.237 72.6503 140.729 73.9196 140.076 75.211C139.425 76.5011 138.632 77.8147 137.702 79.1409C136.159 81.3489 134.366 83.4068 132.547 85.2482C130.153 87.6742 127.713 89.728 125.736 91.2666L125.17 91.6985L124.434 92.2498L124.241 92.1068C121.304 89.9155 115.355 85.0885 111.196 79.1715C108.564 75.4277 106.646 71.2436 106.646 67.0055C106.662 61.6008 106.675 56.1976 106.697 50.793L106.94 50.7319C109.066 50.1972 111.124 49.546 113.1 48.7836C115.079 48.0198 116.979 47.1436 118.788 46.1604C119.694 45.6716 120.585 45.1509 121.453 44.6024C122.324 44.0525 123.179 43.4706 124.012 42.8624L124.211 42.7166L124.404 42.8693C126.855 44.8107 129.556 46.4618 132.486 47.8129C135.416 49.1641 138.579 50.2167 141.958 50.961L142.211 51.0165L142.259 67.0041C142.261 67.3027 142.248 67.6068 142.223 67.9053ZM141.569 67.9775L141.577 67.8512C141.6 67.5734 141.612 67.2874 141.612 67.0041L141.566 51.5373C138.242 50.7874 135.119 49.739 132.215 48.4003C129.317 47.0644 126.638 45.4369 124.197 43.5275C123.417 44.0913 122.615 44.6343 121.799 45.1495C120.913 45.7091 120.009 46.2368 119.096 46.7284C117.263 47.7241 115.337 48.6128 113.334 49.3849C111.403 50.1306 109.401 50.7694 107.341 51.2971L107.293 67.0041C107.294 71.0923 109.162 75.1513 111.725 78.7979C115.744 84.5136 121.468 89.21 124.436 91.443L125.337 90.7556C127.302 89.2281 129.721 87.1909 132.086 84.7955C133.884 82.9736 135.653 80.9434 137.173 78.7701C138.088 77.4648 138.864 76.1789 139.5 74.9194C140.135 73.6613 140.629 72.4295 140.977 71.2339C141.141 70.6576 141.275 70.098 141.372 69.5592C141.47 69.0176 141.536 68.4886 141.569 67.9775Z" fill="black"/>
    <path fill-rule="evenodd" clip-rule="evenodd" d="M150.115 47.8116C150.108 45.7633 148.623 44.0497 146.585 43.7373C138.807 42.5444 132.612 39.7546 127.643 35.2068C125.795 33.514 123.065 33.4404 121.153 35.0276C119.262 36.5982 117.201 37.9882 115.023 39.1616C111.793 40.9169 108.191 42.2708 104.31 43.1887C103.588 43.3637 102.852 43.5234 102.103 43.6664C100.19 44.0344 98.7983 45.7314 98.7914 47.7046C98.7733 53.4356 98.7317 66.3653 98.7317 67.0027C98.7317 85.9314 122.933 100.897 123.963 101.525C124.113 101.616 124.283 101.662 124.454 101.662C124.623 101.662 124.793 101.616 124.944 101.525C125.04 101.466 127.349 100.053 130.58 97.5545C134.502 94.505 140.043 89.6294 144.174 83.7179C146.543 80.3407 148.236 76.9427 149.205 73.6141C149.702 71.8797 150.008 70.1688 150.115 68.5427C150.155 68.0289 150.176 67.5165 150.176 67.0027C150.176 66.3681 150.135 53.5967 150.117 47.8116H150.115ZM148.234 68.408C148.137 69.9133 147.854 71.4895 147.396 73.092C146.483 76.2178 144.882 79.4298 142.631 82.6389C138.635 88.3574 133.244 93.0997 129.426 96.0672C127.137 97.8363 125.292 99.0653 124.454 99.6069C121.01 97.3753 100.615 83.4596 100.615 67.0027C100.615 66.3653 100.656 53.4398 100.674 47.7102C100.679 46.6368 101.428 45.7133 102.459 45.5161C103.239 45.3648 104.003 45.1995 104.75 45.019C108.788 44.0636 112.549 42.6499 115.922 40.8183C118.206 39.588 120.371 38.1271 122.358 36.4774C122.925 36.008 123.607 35.7747 124.29 35.7747C125.033 35.7747 125.778 36.0497 126.376 36.5968C131.626 41.4057 138.144 44.3496 146.303 45.5994C147.419 45.7702 148.232 46.7048 148.234 47.8199C148.252 53.6022 148.293 66.3709 148.293 67.0055C148.293 67.4693 148.275 67.9331 148.236 68.4108L148.234 68.408Z" fill="black"/>
    <path d="M149.792 47.8116C149.79 46.8687 149.445 46.0022 148.868 45.3356C148.291 44.6691 147.478 44.2025 146.537 44.0581C142.62 43.4582 139.098 42.4542 135.928 41.0266C132.756 39.5991 129.937 37.7453 127.425 35.4456C126.562 34.6541 125.491 34.2403 124.413 34.2111C123.337 34.182 122.253 34.5347 121.358 35.2776C120.4 36.0733 119.403 36.8204 118.376 37.5134C117.344 38.2091 116.275 38.8562 115.175 39.4477C113.546 40.3323 111.823 41.1169 110.02 41.7946C108.216 42.4722 106.332 43.0443 104.381 43.5054C103.993 43.5984 103.623 43.6831 103.274 43.7595C102.914 43.8373 102.542 43.9136 102.162 43.9859C101.281 44.1553 100.52 44.6302 99.9801 45.2898C99.4371 45.9508 99.1149 46.7965 99.1122 47.7061L99.1024 50.8777C99.083 57.0433 99.0538 65.9446 99.0538 67.0041C99.0538 73.3669 101.83 79.2868 105.531 84.3512C112.74 94.2162 123.452 100.837 124.129 101.25C124.177 101.279 124.23 101.302 124.283 101.318C124.336 101.333 124.393 101.34 124.45 101.34C124.508 101.34 124.563 101.333 124.616 101.318C124.67 101.302 124.723 101.28 124.77 101.25C124.819 101.221 125.413 100.857 126.401 100.189C127.385 99.5208 128.764 98.5487 130.378 97.3004C132.598 95.5729 135.338 93.2594 138.042 90.5085C140.097 88.4158 142.133 86.0689 143.905 83.5346C145.079 81.8585 146.087 80.1783 146.921 78.5036C147.754 76.8316 148.412 75.168 148.89 73.528C149.136 72.6671 149.334 71.8158 149.484 70.9854C149.633 70.1522 149.735 69.3287 149.787 68.5247V68.5192C149.808 68.2539 149.823 68.0012 149.833 67.7623C149.842 67.5277 149.847 67.2749 149.847 67.0041L149.79 47.813L149.792 47.8116ZM149.356 44.9121C150.033 45.6911 150.434 46.7062 150.438 47.8116L150.498 67.0028C150.498 67.2458 150.492 67.5082 150.481 67.786C150.47 68.0595 150.455 68.3206 150.435 68.5691C150.381 69.3912 150.277 70.2369 150.123 71.0979C149.969 71.9602 149.765 72.8323 149.516 73.703C149.024 75.3902 148.351 77.0899 147.504 78.791C146.657 80.4921 145.632 82.2015 144.438 83.904C142.641 86.473 140.583 88.8476 138.507 90.9612C135.775 93.7412 133.013 96.0728 130.779 97.81C129.16 99.0598 127.767 100.043 126.766 100.721C125.77 101.394 125.163 101.766 125.111 101.8C125.011 101.862 124.904 101.908 124.794 101.938C124.68 101.97 124.566 101.986 124.452 101.986C124.338 101.986 124.223 101.969 124.111 101.938C124.001 101.908 123.895 101.862 123.794 101.8C123.111 101.384 112.295 94.6966 105.011 84.7317C101.237 79.5673 98.4067 73.5225 98.4067 67.0028L98.4678 47.7047C98.4706 46.641 98.8483 45.6508 99.4829 44.8788C100.118 44.1053 101.01 43.547 102.042 43.3485C102.403 43.279 102.77 43.204 103.139 43.1249C103.531 43.0402 103.896 42.9569 104.234 42.8749L104.236 42.8735C106.164 42.4181 108.022 41.8543 109.795 41.1877C111.573 40.5198 113.268 39.7477 114.869 38.8784C115.95 38.2965 116.999 37.6605 118.016 36.9759C119.037 36.2886 120.016 35.554 120.947 34.7805C121.967 33.9348 123.204 33.5307 124.433 33.5654C125.66 33.5987 126.88 34.0695 127.863 34.9693C130.319 37.219 133.083 39.0339 136.196 40.4351C139.311 41.8376 142.776 42.8249 146.636 43.4165C147.733 43.5845 148.683 44.1317 149.358 44.9121H149.356ZM148.558 68.4331C148.508 69.194 148.412 69.9745 148.269 70.7688C148.126 71.5672 147.939 72.3741 147.708 73.1795C147.244 74.7667 146.608 76.3706 145.806 77.9786C145.004 79.5839 144.032 81.2031 142.896 82.8237C141.158 85.3107 139.159 87.6117 137.143 89.6642C134.488 92.3637 131.801 94.6314 129.626 96.3227C128.69 97.0448 127.832 97.6753 127.088 98.2057C125.988 98.989 125.13 99.5569 124.63 99.8791L124.455 99.9916L124.279 99.8777C122.55 98.757 116.563 94.7022 111.01 88.8615C105.433 82.9972 100.291 75.3319 100.291 67.0028L100.352 47.7102C100.354 47.0964 100.57 46.5257 100.931 46.0813C101.295 45.6342 101.806 45.312 102.398 45.1981C102.777 45.1245 103.161 45.0454 103.55 44.9621C103.952 44.8746 104.328 44.7899 104.674 44.7066L104.676 44.7052C106.684 44.2303 108.62 43.6429 110.473 42.9458C112.325 42.2487 114.096 41.4432 115.768 40.5351C116.901 39.924 118.003 39.2561 119.071 38.5368C120.142 37.8147 121.172 37.0426 122.153 36.2288C122.461 35.9719 122.803 35.7789 123.157 35.6498C123.525 35.5165 123.908 35.4484 124.291 35.4484C124.708 35.4484 125.126 35.5276 125.522 35.6831C125.905 35.8345 126.269 36.0594 126.594 36.3566C129.192 38.7354 132.107 40.6559 135.382 42.1348C138.661 43.6151 142.302 44.6566 146.351 45.2759C146.987 45.3731 147.539 45.6897 147.93 46.1397C148.322 46.5896 148.557 47.177 148.558 47.8158L148.618 67.0014C148.616 67.2416 148.612 67.4777 148.602 67.711C148.593 67.9609 148.579 68.2012 148.561 68.4317L148.558 68.4331ZM147.633 70.6549C147.771 69.8884 147.864 69.1302 147.912 68.3872V68.3817C147.932 68.1345 147.945 67.9026 147.954 67.686C147.964 67.4527 147.968 67.2235 147.968 67.0014L147.909 47.8158C147.908 47.3408 147.733 46.902 147.439 46.5646C147.144 46.2271 146.73 45.9897 146.251 45.9161C142.144 45.287 138.446 44.2303 135.113 42.7236C131.777 41.2169 128.807 39.2603 126.155 36.8315C125.891 36.5913 125.595 36.408 125.283 36.2858C124.963 36.1594 124.624 36.0969 124.287 36.0969C123.976 36.0969 123.666 36.1511 123.373 36.2566C123.086 36.3608 122.811 36.5177 122.562 36.7232C121.556 37.5592 120.51 38.3438 119.431 39.0714C118.348 39.8018 117.226 40.4809 116.073 41.1016C114.373 42.0251 112.577 42.843 110.699 43.5484C108.817 44.2566 106.854 44.8524 104.822 45.3328C104.424 45.4287 104.046 45.5148 103.686 45.5925C103.31 45.6745 102.92 45.7536 102.519 45.8314C102.08 45.9147 101.701 46.1535 101.431 46.4854C101.159 46.8187 100.998 47.2478 100.997 47.7074L100.937 67C100.938 75.1278 105.994 82.6487 111.477 88.4144C116.806 94.019 122.539 97.9655 124.454 99.2195C124.965 98.8862 125.745 98.3641 126.712 97.6767C127.455 97.1476 128.307 96.5213 129.228 95.8103C131.389 94.1287 134.056 91.8791 136.681 89.2087C138.678 87.1785 140.652 84.9039 142.366 82.4515C143.48 80.8643 144.435 79.2715 145.225 77.6884C146.014 76.1081 146.636 74.5417 147.086 73.0003C147.314 72.2046 147.497 71.4187 147.634 70.6521L147.633 70.6549Z" fill="black"/>
  </g>
</symbol>
<symbol viewBox="0 0 110 83" id="gaurantee-tablet">
  <g>
    <path d="M0 1.64812V8.95121H18.8283V81.5256H27.0444V1.64899H0V1.64812ZM77.9369 82.2094C96.4224 82.2094 109.887 67.0331 109.887 41.5864C109.887 16.1397 96.4224 0.963379 77.9369 0.963379C59.4514 0.963379 46.1001 16.1397 46.1001 41.5864C46.1001 67.0331 59.4505 82.2094 77.9369 82.2094ZM77.9369 74.6781C64.0155 74.6781 54.4299 62.9246 54.4299 41.5864C54.4299 20.2473 64.0155 8.49471 77.9369 8.49471C91.8583 8.49471 101.444 20.2482 101.444 41.5864C101.444 62.9246 91.8583 74.6781 77.9369 74.6781Z" fill="black"/>
    <path fill-rule="evenodd" clip-rule="evenodd" d="M89.3795 31.9567C84.9595 31.0507 81.1348 29.2872 78.0114 26.7157C77.8005 26.5412 77.4993 26.536 77.2824 26.7C76.1741 27.5384 74.9947 28.296 73.7745 28.9539C71.459 30.2123 68.8971 31.18 66.1598 31.83C65.8951 31.8925 65.7085 32.1285 65.7076 32.4002C65.6946 36.3516 65.6755 42.4926 65.6755 42.838C65.6755 50.4179 74.6649 57.5613 77.4204 59.5696C77.5228 59.6451 77.6451 59.6833 77.7666 59.6833C77.8881 59.6833 78.0096 59.6459 78.1129 59.5704C78.441 59.3309 78.7977 59.0645 79.1769 58.7711C81.4117 57.0337 84.5577 54.2713 86.8558 50.9812C88.0838 49.2316 88.9491 47.5106 89.429 45.8634C89.6616 45.0537 89.8031 44.2691 89.8499 43.5444L89.8543 43.4811C89.8716 43.2693 89.8803 43.0524 89.8803 42.838C89.8803 42.4969 89.8491 32.5304 89.8491 32.5304C89.8482 32.2518 89.652 32.0114 89.3795 31.9558V31.9567ZM88.6826 43.3848C88.6826 43.3882 88.6774 43.4568 88.6774 43.4603C88.6358 44.1112 88.5091 44.8115 88.3008 45.5379C87.8573 47.0576 87.0476 48.6631 85.8942 50.3077C83.6794 53.478 80.6262 56.1554 78.4566 57.8425C78.2179 58.0274 77.9879 58.2018 77.7684 58.365C74.7942 56.145 66.8532 49.5813 66.8532 42.8389C66.8532 42.5065 66.8715 36.8133 66.8836 32.8645C69.5532 32.1936 72.0587 31.2268 74.336 29.9884C75.472 29.3757 76.5768 28.6788 77.6243 27.9125C80.7156 30.3616 84.4292 32.073 88.6766 33.0094C88.6826 34.9942 88.7061 42.5421 88.7061 42.838C88.7061 43.0202 88.6983 43.2042 88.6835 43.3839L88.6826 43.3848Z" fill="black"/>
    <path d="M89.3398 32.1546C87.1146 31.699 85.0386 31.0264 83.1259 30.1446C81.2122 29.262 79.46 28.1685 77.884 26.871C77.8137 26.8138 77.7304 26.7842 77.647 26.7825C77.5629 26.7808 77.4769 26.8068 77.4049 26.8615C76.8469 27.2833 76.2706 27.686 75.6796 28.0652C75.0894 28.4445 74.4854 28.8012 73.871 29.1318C72.7045 29.7654 71.4774 30.326 70.1982 30.8085C68.9163 31.2928 67.5824 31.6998 66.2068 32.027C66.1201 32.0478 66.0454 32.0965 65.9942 32.1615C65.9421 32.2284 65.91 32.3125 65.91 32.4011L65.8779 42.838C65.8788 45.6534 67.145 48.4158 68.8686 50.8701C71.7265 54.9421 75.8341 58.1636 77.5394 59.4064C77.5733 59.4307 77.6097 59.449 77.647 59.4611C77.6852 59.4733 77.726 59.4802 77.7668 59.4802C77.8076 59.4802 77.8484 59.4741 77.8866 59.462C77.9239 59.4498 77.9612 59.4316 77.9951 59.4064C78.153 59.2919 78.3231 59.166 78.5054 59.0298C78.6755 58.9022 78.8577 58.7633 79.0539 58.6123C80.3183 57.6282 81.8761 56.316 83.4019 54.7677C84.5622 53.59 85.706 52.2761 86.6911 50.8666C87.2994 49.9979 87.8184 49.1387 88.2437 48.2925C88.6681 47.449 88.9996 46.6184 89.2356 45.8087C89.3502 45.4078 89.4422 45.0164 89.5108 44.6397C89.5793 44.2604 89.6262 43.889 89.6487 43.5323L89.6531 43.4672C89.6618 43.3553 89.6687 43.2503 89.6722 43.1539C89.6756 43.0602 89.6782 42.9543 89.6782 42.8389L89.6479 32.5321C89.6479 32.441 89.6149 32.3551 89.5602 32.2882C89.5055 32.2214 89.4283 32.1728 89.3398 32.1546ZM83.2951 29.7775C85.1801 30.6471 87.2274 31.3093 89.4205 31.7589C89.6045 31.7962 89.7624 31.896 89.8735 32.0322C89.9846 32.1694 90.0506 32.3438 90.0514 32.5304L90.0835 42.8389C90.0835 42.9387 90.0809 43.0489 90.0766 43.1695C90.0723 43.2867 90.0653 43.3969 90.0575 43.4976L90.0532 43.5601C90.0297 43.9289 89.9811 44.3151 89.9091 44.7117C89.8371 45.1092 89.7425 45.5136 89.6253 45.9198C89.3806 46.7564 89.0395 47.6104 88.6047 48.4748C88.1699 49.3392 87.6414 50.2157 87.0226 51.0984C86.0219 52.5295 84.8633 53.8608 83.69 55.0515C82.1452 56.618 80.5752 57.9415 79.3021 58.9317L78.7475 59.3526L78.232 59.7336C78.1634 59.784 78.0888 59.8213 78.0115 59.8464C77.9317 59.8725 77.8484 59.8855 77.7668 59.8855C77.6844 59.8855 77.6019 59.8725 77.5221 59.8464C77.4448 59.8213 77.3693 59.7831 77.3016 59.7327C75.5781 58.4761 71.4279 55.2198 68.5379 51.1027C66.7718 48.5876 65.4744 45.748 65.4744 42.838L65.5073 32.4002C65.5082 32.2162 65.5716 32.0452 65.6783 31.9107C65.7859 31.7753 65.9378 31.6747 66.1149 31.633C67.4774 31.3093 68.7948 30.9075 70.0567 30.4302C71.3203 29.9528 72.531 29.4 73.6792 28.776C74.2849 28.4488 74.8803 28.0973 75.4618 27.7241C76.0432 27.351 76.6117 26.9535 77.1619 26.5378C77.3077 26.4284 77.4821 26.3746 77.6549 26.3781C77.8284 26.3816 78.0003 26.4423 78.1417 26.5586C79.6891 27.8326 81.4118 28.9079 83.2951 29.7766V29.7775ZM88.885 43.4021L88.8798 43.4742C88.859 43.8057 88.8156 44.1511 88.7505 44.5078C88.6854 44.8645 88.6004 45.2281 88.4954 45.5935C88.2688 46.3676 87.9512 47.1609 87.5433 47.968C87.1363 48.7742 86.6407 49.5952 86.0593 50.424C85.0951 51.8039 83.9746 53.0901 82.8377 54.2409C81.3415 55.7571 79.8167 57.0406 78.5809 58.0022L78.2276 58.2721L77.7677 58.6167L77.647 58.5273C75.8115 57.1578 72.0936 54.1411 69.4943 50.4431C67.8488 48.1034 66.6503 45.4885 66.6503 42.8398C66.6607 39.462 66.6685 36.0852 66.6824 32.7074L66.8343 32.6692C68.163 32.3351 69.4492 31.9281 70.6842 31.4516C71.9209 30.9743 73.1081 30.4267 74.2389 29.8122C74.8048 29.5067 75.362 29.1813 75.9044 28.8385C76.4485 28.4948 76.9831 28.1312 77.5038 27.7511L77.6279 27.6599L77.7486 27.7554C79.2804 28.9687 80.9684 30.0006 82.7996 30.845C84.6308 31.6894 86.6077 32.3473 88.7193 32.8124L88.8772 32.8472L88.9076 42.8389C88.9085 43.0255 88.9007 43.2155 88.885 43.4021ZM88.4763 43.4473L88.4815 43.3683C88.4954 43.1947 88.5032 43.0159 88.5032 42.8389L88.4745 33.1726C86.3969 32.704 84.445 32.0487 82.6303 31.2121C80.8191 30.3772 79.145 29.3601 77.6193 28.1668C77.1315 28.5191 76.6308 28.8584 76.1205 29.1804C75.5668 29.5302 75.0018 29.86 74.4316 30.1672C73.286 30.7894 72.0823 31.3449 70.83 31.8274C69.6236 32.2935 68.3722 32.6927 67.0851 33.0225L67.0547 42.8389C67.0556 45.3939 68.2229 47.9307 69.825 50.2097C72.3366 53.7818 75.9139 56.7169 77.7685 58.1124L78.3318 57.6828C79.5598 56.7282 81.0716 55.455 82.5496 53.958C83.6735 52.8193 84.7792 51.5505 85.7286 50.1923C86.3005 49.3765 86.7857 48.5729 87.1831 47.7857C87.5798 46.9994 87.8887 46.2296 88.1066 45.4824C88.209 45.1222 88.2923 44.7725 88.353 44.4358C88.4146 44.0973 88.4554 43.7666 88.4763 43.4473Z" fill="black"/>
    <path fill-rule="evenodd" clip-rule="evenodd" d="M93.8171 30.8441C93.8127 29.564 92.885 28.493 91.611 28.2977C86.7501 27.5523 82.8785 25.8087 79.7733 22.9665C78.6182 21.9085 76.9119 21.8625 75.7169 22.8545C74.5349 23.8361 73.247 24.7048 71.8861 25.4381C69.8675 26.5351 67.6162 27.3813 65.1906 27.9549C64.7393 28.0643 64.2793 28.1641 63.8115 28.2535C62.6156 28.4835 61.746 29.544 61.7417 30.7772C61.7304 34.3589 61.7043 42.4396 61.7043 42.838C61.7043 54.6678 76.8295 64.0208 77.4735 64.4131C77.5672 64.4704 77.6731 64.499 77.7798 64.499C77.8857 64.499 77.9916 64.4704 78.0862 64.4131C78.146 64.3766 79.5893 63.4932 81.6088 61.9319C84.0597 60.026 87.5225 56.979 90.1044 53.2845C91.5849 51.1738 92.6429 49.0501 93.2486 46.9699C93.5593 45.8859 93.7503 44.8167 93.8171 43.8004C93.8423 43.4793 93.8553 43.1591 93.8553 42.838C93.8553 42.4413 93.8301 34.4596 93.8188 30.8441H93.8171ZM92.642 43.7162C92.5812 44.657 92.4042 45.642 92.1178 46.6436C91.5476 48.5971 90.547 50.6045 89.1402 52.6101C86.6424 56.184 83.2734 59.1478 80.8876 61.0024C79.4565 62.108 78.304 62.8761 77.7798 63.2146C75.6275 61.8199 62.8812 53.123 62.8812 42.838C62.8812 42.4396 62.9072 34.3615 62.9185 30.7807C62.9211 30.1099 63.3897 29.5327 64.0337 29.4095C64.5214 29.3149 64.9988 29.2116 65.4657 29.0988C67.9894 28.5017 70.3396 27.6182 72.4476 26.4735C73.8753 25.7046 75.2283 24.7916 76.4702 23.7606C76.8243 23.4672 77.2504 23.3214 77.6774 23.3214C78.1417 23.3214 78.6078 23.4932 78.9809 23.8352C82.2623 26.8406 86.3361 28.6805 91.4348 29.4616C92.1326 29.5683 92.6403 30.1524 92.642 30.8493C92.6533 34.4631 92.6784 42.4431 92.6784 42.8397C92.6784 43.1296 92.6672 43.4194 92.6429 43.718L92.642 43.7162Z" fill="black"/>
    <path d="M93.6157 30.8442C93.614 30.2549 93.3987 29.7133 93.0377 29.2968C92.6775 28.8802 92.169 28.5886 91.5814 28.4983C89.1332 28.1234 86.9323 27.4959 84.9509 26.6038C82.9687 25.7116 81.207 24.553 79.637 23.1158C79.0972 22.6211 78.4281 22.3625 77.7546 22.3443C77.082 22.3261 76.4042 22.5465 75.8453 23.0108C75.2465 23.5081 74.6233 23.975 73.9811 24.4081C73.3363 24.8429 72.668 25.2473 71.9807 25.617C70.9627 26.1698 69.8857 26.6602 68.7592 27.0837C67.6318 27.5072 66.4541 27.8648 65.2348 28.1529C64.9926 28.2111 64.7609 28.264 64.5431 28.3117C64.3183 28.3603 64.0857 28.4081 63.8479 28.4532C63.2977 28.5591 62.8221 28.8559 62.4845 29.2681C62.1452 29.6812 61.9438 30.2098 61.9421 30.7782L61.936 32.7604C61.9239 36.6137 61.9056 42.1767 61.9056 42.8389C61.9056 46.8155 63.6405 50.5152 65.9534 53.6803C70.4593 59.8456 77.154 63.9836 77.5767 64.2413C77.6071 64.2596 77.64 64.2743 77.673 64.2839C77.706 64.2934 77.7416 64.2978 77.7772 64.2978C77.8136 64.2978 77.8483 64.2934 77.8813 64.2839C77.9152 64.2743 77.9481 64.2604 77.9776 64.2413C78.008 64.2231 78.3795 63.9957 78.9965 63.5783C79.6118 63.1609 80.4736 62.5533 81.4821 61.7731C82.8698 60.6935 84.5821 59.2477 86.2718 57.5284C87.5563 56.2205 88.8286 54.7538 89.936 53.17C90.6702 52.1225 91.3002 51.0724 91.821 50.0257C92.3417 48.9808 92.753 47.9411 93.0516 46.9162C93.2052 46.3781 93.3293 45.8461 93.423 45.3271C93.5159 44.8064 93.5801 44.2917 93.6122 43.7892V43.7858C93.6252 43.62 93.6348 43.4621 93.6409 43.3128C93.6469 43.1661 93.6495 43.0082 93.6495 42.8389L93.614 30.845L93.6157 30.8442ZM93.3432 29.0321C93.7658 29.5189 94.0166 30.1533 94.0193 30.8442L94.0566 42.8381C94.0566 42.9899 94.0531 43.154 94.0462 43.3275C94.0392 43.4985 94.0297 43.6617 94.0175 43.817C93.9837 44.3308 93.9186 44.8593 93.8222 45.3974C93.7259 45.9363 93.5983 46.4814 93.443 47.0255C93.1358 48.08 92.7149 49.1422 92.1855 50.2054C91.6561 51.2685 91.0156 52.3368 90.2692 53.4008C89.1462 55.0064 87.86 56.4904 86.5626 57.8113C84.8555 59.5488 83.1293 61.0059 81.7329 62.0916C80.721 62.8727 79.8505 63.4872 79.2248 63.9107C78.6025 64.3316 78.2232 64.5642 78.1903 64.585C78.1278 64.6241 78.061 64.6527 77.9924 64.6718C77.9212 64.6918 77.8501 64.7013 77.7789 64.7013C77.7077 64.7013 77.6357 64.6909 77.5654 64.6718C77.4968 64.6527 77.4309 64.6241 77.3675 64.585C76.9405 64.3255 70.1807 60.1459 65.6288 53.9181C63.2699 50.6905 61.5012 46.9127 61.5012 42.8381L61.5394 30.7773C61.5411 30.1126 61.7772 29.4938 62.1738 29.0112C62.5704 28.5278 63.1285 28.179 63.7733 28.0548C63.9989 28.0115 64.228 27.9646 64.4589 27.9151C64.7036 27.8622 64.9319 27.8101 65.1428 27.7589L65.1445 27.758C66.3491 27.4734 67.5103 27.121 68.6186 26.7045C69.7294 26.287 70.7891 25.8045 71.7898 25.2612C72.465 24.8976 73.1211 24.5001 73.7563 24.0722C74.3942 23.6426 75.0061 23.1835 75.5884 22.7001C76.2254 22.1716 76.9987 21.919 77.7667 21.9407C78.5339 21.9616 79.2959 22.2558 79.9104 22.8182C81.4456 24.2241 83.1727 25.3584 85.1184 26.2341C87.0651 27.1106 89.2304 27.7277 91.643 28.0974C92.3287 28.2024 92.9223 28.5443 93.3441 29.0321H93.3432ZM92.8442 43.732C92.8129 44.2076 92.753 44.6953 92.6636 45.1917C92.5743 45.6907 92.4571 46.195 92.313 46.6983C92.0232 47.6903 91.6257 48.6927 91.1241 49.6977C90.6233 50.7009 90.0158 51.7128 89.3059 52.7256C88.2193 54.28 86.9705 55.718 85.7103 57.0007C84.051 58.6879 82.3716 60.1051 81.0126 61.1622C80.4276 61.6135 79.8913 62.0075 79.4261 62.339C78.7388 62.8285 78.2024 63.1834 77.89 63.3848L77.7806 63.4551L77.6704 63.3839C76.5899 62.6835 72.8486 60.1494 69.378 56.4991C65.8926 52.8341 62.6789 48.0435 62.6789 42.8381L62.7171 30.7808C62.718 30.3972 62.8534 30.0405 63.079 29.7628C63.3064 29.4834 63.6258 29.282 63.9955 29.2108C64.2324 29.1648 64.4728 29.1154 64.7158 29.0633C64.9666 29.0086 65.2018 28.9557 65.4179 28.9036L65.4196 28.9028C66.6746 28.6059 67.8844 28.2388 69.0421 27.8032C70.1998 27.3675 71.3064 26.8641 72.3513 26.2966C73.0594 25.9147 73.7485 25.4973 74.4159 25.0477C75.085 24.5964 75.729 24.1139 76.3417 23.6053C76.5344 23.4448 76.7479 23.3241 76.9692 23.2434C77.1992 23.1601 77.4387 23.1176 77.6782 23.1176C77.9386 23.1176 78.1998 23.167 78.4471 23.2642C78.6867 23.3588 78.9141 23.4994 79.1171 23.6851C80.7409 25.1718 82.5626 26.3721 84.6099 27.2963C86.6589 28.2215 88.9344 28.8724 91.4651 29.2594C91.8626 29.3202 92.2072 29.5181 92.4519 29.7993C92.6966 30.0804 92.8433 30.4476 92.8442 30.8468L92.8815 42.8372C92.8806 42.9873 92.878 43.1349 92.8719 43.2807C92.8659 43.4369 92.8572 43.587 92.8459 43.7311L92.8442 43.732ZM92.2662 45.1205C92.3521 44.6415 92.4102 44.1676 92.4406 43.7033V43.6998C92.4528 43.5454 92.4614 43.4004 92.4666 43.2651C92.4727 43.1192 92.4753 42.976 92.4753 42.8372L92.4389 30.8468C92.438 30.55 92.3287 30.2757 92.1447 30.0648C91.9607 29.8539 91.7021 29.7055 91.4026 29.6595C88.8355 29.2664 86.5244 28.6059 84.4415 27.6643C82.3569 26.7227 80.5005 25.4999 78.8429 23.982C78.678 23.8318 78.4931 23.7173 78.2979 23.6409C78.0983 23.5619 77.8865 23.5229 77.6756 23.5229C77.4812 23.5229 77.2877 23.5567 77.1046 23.6227C76.9249 23.6878 76.7531 23.7858 76.5977 23.9143C75.9685 24.4367 75.315 24.9271 74.6407 25.3818C73.9638 25.8383 73.2625 26.2627 72.5422 26.6506C71.4799 27.2278 70.3569 27.7389 69.1836 28.1798C68.0076 28.6224 66.7804 28.9947 65.5108 29.295C65.2617 29.3549 65.0256 29.4087 64.8008 29.4573C64.5656 29.5085 64.3218 29.558 64.071 29.6066C63.7967 29.6587 63.5598 29.8079 63.3914 30.0154C63.2213 30.2236 63.1207 30.4918 63.1198 30.7791L63.0825 42.8363C63.0833 47.9159 66.2432 52.6163 69.6696 56.2197C73.0004 59.7224 76.583 62.1888 77.7798 62.9725C78.0991 62.7642 78.5869 62.4379 79.1909 62.0083C79.6552 61.6777 80.1881 61.2863 80.7635 60.8419C82.1139 59.7909 83.7811 58.385 85.4213 56.7161C86.6693 55.4473 87.9034 54.0257 88.9744 52.4931C89.6704 51.5011 90.2675 50.5056 90.7613 49.5163C91.2542 48.5287 91.643 47.5497 91.9242 46.5864C92.0666 46.0891 92.1811 45.5979 92.267 45.1188L92.2662 45.1205Z" fill="black"/>
  </g>
</symbol>
<symbol viewBox="0 0 68 50" id="gaurantee-tablet-min">
  <g>
    <path d="M0 0.421402V4.91583H11.5872V49.5791H16.6435V0.421936H0V0.421402ZM47.9635 50C59.3398 50 67.6263 40.6602 67.6263 25C67.6263 9.33975 59.3398 0 47.9635 0C36.5872 0 28.3707 9.33975 28.3707 25C28.3707 40.6602 36.5867 50 47.9635 50ZM47.9635 45.3651C39.396 45.3651 33.4969 38.1318 33.4969 25C33.4969 11.8676 39.396 4.63489 47.9635 4.63489C56.5309 4.63489 62.43 11.8682 62.43 25C62.43 38.1318 56.5309 45.3651 47.9635 45.3651Z" fill="black"/>
    <path fill-rule="evenodd" clip-rule="evenodd" d="M55.0058 19.0739C52.2856 18.5163 49.9318 17.431 48.0096 15.8485C47.8798 15.7411 47.6945 15.7379 47.561 15.8389C46.8789 16.3548 46.1531 16.8211 45.4022 17.2259C43.9772 18.0004 42.4005 18.5959 40.716 18.9959C40.5531 19.0344 40.4383 19.1797 40.4377 19.3468C40.4297 21.7786 40.418 25.5578 40.418 25.7704C40.418 30.4352 45.9501 34.8314 47.6459 36.0673C47.7089 36.1137 47.7842 36.1372 47.859 36.1372C47.9338 36.1372 48.0086 36.1143 48.0721 36.0678C48.274 35.9204 48.4935 35.7564 48.7269 35.5759C50.1022 34.5066 52.0383 32.8066 53.4526 30.7818C54.2083 29.7051 54.7408 28.646 55.0362 27.6323C55.1793 27.134 55.2664 26.6511 55.2952 26.2052L55.2979 26.1662C55.3086 26.0359 55.3139 25.9023 55.3139 25.7704C55.3139 25.5605 55.2947 19.4269 55.2947 19.4269C55.2942 19.2555 55.1735 19.1076 55.0058 19.0734V19.0739ZM54.5769 26.1069C54.5769 26.109 54.5737 26.1512 54.5737 26.1534C54.548 26.5539 54.4701 26.9849 54.3419 27.432C54.0689 28.3672 53.5706 29.3553 52.8608 30.3674C51.4978 32.3184 49.6189 33.9661 48.2836 35.0044C48.1367 35.1182 47.9952 35.2255 47.8601 35.3259C46.0297 33.9597 41.1427 29.9203 41.1427 25.7709C41.1427 25.5664 41.154 22.0627 41.1614 19.6326C42.8043 19.2197 44.3462 18.6247 45.7477 17.8626C46.4469 17.4855 47.1268 17.0566 47.7714 16.585C49.6739 18.0922 51.9593 19.1455 54.5731 19.7218C54.5769 20.9432 54.5913 25.5883 54.5913 25.7704C54.5913 25.8826 54.5865 25.9958 54.5774 26.1064L54.5769 26.1069Z" fill="black"/>
    <path d="M54.9811 19.1955C53.6116 18.9151 52.3341 18.5012 51.1569 17.9586C49.9793 17.4154 48.9009 16.7424 47.931 15.944C47.8877 15.9087 47.8365 15.8906 47.7852 15.8895C47.7334 15.8884 47.6805 15.9044 47.6362 15.9381C47.2927 16.1977 46.9381 16.4455 46.5744 16.6789C46.2112 16.9123 45.8395 17.1318 45.4613 17.3353C44.7435 17.7252 43.9883 18.0702 43.201 18.3672C42.4122 18.6652 41.5913 18.9157 40.7447 19.117C40.6913 19.1299 40.6454 19.1598 40.6139 19.1998C40.5818 19.2409 40.5621 19.2928 40.5621 19.3472L40.5423 25.7703C40.5428 27.5029 41.3221 29.2029 42.3828 30.7133C44.1416 33.2193 46.6695 35.2019 47.719 35.9667C47.7398 35.9817 47.7622 35.9929 47.7852 36.0004C47.8087 36.0078 47.8338 36.0121 47.8589 36.0121C47.884 36.0121 47.9091 36.0084 47.9326 36.0009C47.9556 35.9934 47.9785 35.9822 47.9994 35.9667C48.0966 35.8962 48.2012 35.8188 48.3134 35.7349C48.4181 35.6564 48.5303 35.571 48.651 35.478C49.4291 34.8724 50.3878 34.0648 51.3268 33.112C52.0409 32.3872 52.7448 31.5786 53.351 30.7112C53.7254 30.1766 54.0448 29.6478 54.3065 29.1271C54.5677 28.6079 54.7717 28.0968 54.917 27.5985C54.9875 27.3517 55.0441 27.1109 55.0863 26.8791C55.1285 26.6457 55.1573 26.4171 55.1712 26.1976L55.1739 26.1575C55.1792 26.0886 55.1835 26.024 55.1856 25.9647C55.1878 25.907 55.1894 25.8418 55.1894 25.7708L55.1707 19.4279C55.1707 19.3718 55.1504 19.3189 55.1167 19.2778C55.0831 19.2367 55.0356 19.2068 54.9811 19.1955ZM51.2611 17.7327C52.4211 18.2678 53.6811 18.6753 55.0307 18.952C55.144 18.975 55.2412 19.0364 55.3095 19.1202C55.3779 19.2046 55.4185 19.312 55.419 19.4268L55.4388 25.7708C55.4388 25.8322 55.4372 25.9001 55.4345 25.9743C55.4319 26.0464 55.4276 26.1142 55.4228 26.1762L55.4201 26.2146C55.4057 26.4416 55.3758 26.6793 55.3314 26.9234C55.2871 27.168 55.2289 27.4169 55.1568 27.6669C55.0062 28.1817 54.7963 28.7073 54.5287 29.2392C54.2611 29.7712 53.9358 30.3106 53.555 30.8538C52.9392 31.7345 52.2262 32.5538 51.5041 33.2866C50.5534 34.2507 49.5872 35.0652 48.8037 35.6746L48.4624 35.9336L48.1452 36.1681C48.103 36.1991 48.057 36.222 48.0095 36.2375C47.9604 36.2535 47.9091 36.2615 47.8589 36.2615C47.8082 36.2615 47.7574 36.2535 47.7083 36.2375C47.6607 36.222 47.6143 36.1985 47.5726 36.1675C46.5119 35.3942 43.9578 33.3902 42.1793 30.8565C41.0924 29.3087 40.2939 27.5611 40.2939 25.7703L40.3142 19.3467C40.3148 19.2335 40.3538 19.1283 40.4195 19.0455C40.4857 18.9621 40.5792 18.9002 40.6881 18.8746C41.5266 18.6753 42.3374 18.4281 43.114 18.1343C43.8916 17.8405 44.6367 17.5003 45.3433 17.1163C45.7161 16.915 46.0825 16.6986 46.4403 16.469C46.7982 16.2393 47.148 15.9947 47.4866 15.7389C47.5764 15.6716 47.6837 15.6385 47.79 15.6406C47.8968 15.6427 48.0026 15.6801 48.0896 15.7517C49.0419 16.5357 50.1021 17.1975 51.2611 17.7321V17.7327ZM54.7012 26.1174L54.698 26.1618C54.6852 26.3658 54.6585 26.5784 54.6184 26.7979C54.5784 27.0174 54.526 27.2412 54.4614 27.466C54.322 27.9425 54.1265 28.4306 53.8755 28.9273C53.625 29.4235 53.32 29.9288 52.9622 30.4388C52.3688 31.288 51.6793 32.0796 50.9796 32.7878C50.0588 33.7208 49.1204 34.5108 48.3599 35.1026L48.1425 35.2687L47.8594 35.4807L47.7852 35.4257C46.6556 34.5829 44.3675 32.7264 42.7679 30.4506C41.7552 29.0106 41.0176 27.4014 41.0176 25.7713C41.0241 23.6926 41.0289 21.6145 41.0374 19.5358L41.1309 19.5123C41.9486 19.3066 42.7401 19.0561 43.5001 18.7629C44.2612 18.4692 44.9919 18.1322 45.6878 17.754C46.036 17.566 46.3789 17.3657 46.7127 17.1548C47.0476 16.9433 47.3766 16.7195 47.6971 16.4855L47.7734 16.4295L47.8477 16.4882C48.7904 17.2349 49.8292 17.8699 50.9561 18.3896C52.0831 18.9093 53.2997 19.3141 54.5992 19.6004L54.6964 19.6218L54.7151 25.7708C54.7156 25.8856 54.7108 26.0026 54.7012 26.1174ZM54.4496 26.1452L54.4529 26.0966C54.4614 25.9898 54.4662 25.8798 54.4662 25.7708L54.4486 19.822C53.1699 19.5336 51.9688 19.1304 50.852 18.6155C49.7373 18.1017 48.707 17.4758 47.7681 16.7414C47.4679 16.9582 47.1598 17.167 46.8457 17.3652C46.505 17.5804 46.1573 17.7834 45.8064 17.9725C45.1014 18.3554 44.3606 18.6972 43.5899 18.9942C42.8475 19.281 42.0773 19.5267 41.2852 19.7296L41.2665 25.7708C41.2671 27.3432 41.9854 28.9044 42.9714 30.3069C44.517 32.5052 46.7186 34.3116 47.86 35.1704L48.2066 34.906C48.9623 34.3185 49.8927 33.535 50.8023 32.6137C51.494 31.9129 52.1744 31.1321 52.7587 30.2962C53.1107 29.7942 53.4092 29.2996 53.6538 28.8152C53.8979 28.3313 54.0881 27.8575 54.2221 27.3977C54.2851 27.176 54.3364 26.9608 54.3738 26.7536C54.4117 26.5453 54.4368 26.3418 54.4496 26.1452Z" fill="black"/>
    <path fill-rule="evenodd" clip-rule="evenodd" d="M57.7363 18.3891C57.7336 17.6013 57.1627 16.9422 56.3786 16.822C53.3871 16.3632 51.0045 15.2902 49.0935 13.5411C48.3826 12.89 47.3326 12.8617 46.5972 13.4722C45.8697 14.0762 45.0771 14.6109 44.2397 15.0622C42.9973 15.7373 41.6119 16.258 40.1191 16.6111C39.8414 16.6783 39.5583 16.7398 39.2704 16.7948C38.5344 16.9363 37.9993 17.589 37.9966 18.3479C37.9897 20.5522 37.9736 25.5251 37.9736 25.7703C37.9736 33.0506 47.2819 38.8065 47.6782 39.0479C47.7359 39.0832 47.801 39.1008 47.8667 39.1008C47.9319 39.1008 47.997 39.0832 48.0552 39.0479C48.0921 39.0255 48.9803 38.4818 50.2231 37.5209C51.7314 36.3481 53.8625 34.4729 55.4514 32.1992C56.3626 30.9003 57.0136 29.5933 57.3864 28.3131C57.5777 27.646 57.6952 26.988 57.7363 26.3626C57.7518 26.165 57.7598 25.9679 57.7598 25.7703C57.7598 25.5262 57.7443 20.6141 57.7373 18.3891H57.7363ZM57.0131 26.3108C56.9757 26.8897 56.8668 27.4959 56.6905 28.1123C56.3396 29.3145 55.7238 30.5499 54.858 31.7842C53.3209 33.9836 51.2475 35.8076 49.7793 36.9489C48.8986 37.6294 48.1893 38.102 47.8667 38.3103C46.5421 37.452 38.6979 32.0999 38.6979 25.7703C38.6979 25.5251 38.7139 20.5538 38.7208 18.3501C38.7224 17.9372 39.0109 17.582 39.4071 17.5062C39.7073 17.448 40.0011 17.3844 40.2884 17.315C41.8416 16.9475 43.2879 16.4038 44.5852 15.6993C45.4638 15.2261 46.2965 14.6643 47.0608 14.0298C47.2787 13.8492 47.5409 13.7595 47.8037 13.7595C48.0894 13.7595 48.3762 13.8653 48.6059 14.0757C50.6253 15.9253 53.1324 17.0576 56.2702 17.5382C56.6996 17.6039 57.012 17.9634 57.0131 18.3923C57.0201 20.6162 57.0355 25.5273 57.0355 25.7713C57.0355 25.9497 57.0286 26.1281 57.0136 26.3119L57.0131 26.3108Z" fill="black"/>
    <path d="M57.6123 18.389C57.6113 18.0264 57.4788 17.6931 57.2566 17.4367C57.035 17.1804 56.722 17.0009 56.3604 16.9454C54.8537 16.7146 53.4993 16.3285 52.2799 15.7794C51.06 15.2304 49.9758 14.5174 49.0097 13.6329C48.6774 13.3285 48.2657 13.1693 47.8512 13.1581C47.4373 13.1469 47.0201 13.2825 46.6762 13.5683C46.3077 13.8743 45.9242 14.1617 45.5289 14.4282C45.1321 14.6957 44.7209 14.9446 44.2979 15.1722C43.6714 15.5124 43.0085 15.8141 42.3153 16.0748C41.6215 16.3354 40.8967 16.5555 40.1463 16.7328C39.9973 16.7686 39.8547 16.8012 39.7206 16.8305C39.5823 16.8604 39.4392 16.8898 39.2928 16.9176C38.9542 16.9827 38.6615 17.1654 38.4538 17.4191C38.2449 17.6733 38.121 17.9986 38.12 18.3484L38.1162 19.5683C38.1087 21.9397 38.0975 25.3633 38.0975 25.7708C38.0975 28.218 39.1652 30.4949 40.5885 32.4427C43.3616 36.2369 47.4816 38.7835 47.7417 38.9421C47.7604 38.9534 47.7807 38.9624 47.801 38.9683C47.8213 38.9742 47.8432 38.9769 47.8651 38.9769C47.8875 38.9769 47.9089 38.9742 47.9292 38.9683C47.95 38.9624 47.9703 38.9539 47.9885 38.9421C48.0072 38.9309 48.2357 38.791 48.6155 38.5341C48.9942 38.2772 49.5245 37.9033 50.1451 37.4232C50.9992 36.7587 52.0529 35.8689 53.0928 34.8109C53.8833 34.006 54.6663 33.1034 55.3478 32.1287C55.7996 31.484 56.1874 30.8378 56.5078 30.1936C56.8283 29.5506 57.0815 28.9107 57.2652 28.28C57.3597 27.9488 57.4361 27.6214 57.4938 27.302C57.5509 26.9816 57.5905 26.6649 57.6102 26.3556V26.3535C57.6182 26.2515 57.6241 26.1543 57.6278 26.0624C57.6316 25.9721 57.6332 25.8749 57.6332 25.7708L57.6113 18.3896L57.6123 18.389ZM57.4446 17.2738C57.7047 17.5735 57.8591 17.9639 57.8607 18.389L57.8837 25.7702C57.8837 25.8637 57.8815 25.9647 57.8773 26.0715C57.873 26.1767 57.8671 26.2771 57.8596 26.3727C57.8388 26.6889 57.7987 27.0142 57.7395 27.3453C57.6802 27.677 57.6017 28.0124 57.5061 28.3473C57.317 28.9962 57.058 29.6499 56.7322 30.3042C56.4064 30.9585 56.0122 31.6159 55.5529 32.2707C54.8617 33.2588 54.0702 34.1721 53.2717 34.985C52.2212 36.0543 51.1589 36.951 50.2995 37.6192C49.6767 38.0999 49.141 38.478 48.756 38.7386C48.373 38.9977 48.1396 39.1408 48.1193 39.1536C48.0809 39.1777 48.0397 39.1953 47.9975 39.207C47.9537 39.2193 47.9099 39.2252 47.8662 39.2252C47.8224 39.2252 47.778 39.2188 47.7348 39.207C47.6926 39.1953 47.652 39.1777 47.613 39.1536C47.3502 38.9939 43.1901 36.4217 40.3888 32.5891C38.9371 30.6027 37.8486 28.2778 37.8486 25.7702L37.8721 18.3479C37.8732 17.9388 38.0185 17.558 38.2626 17.261C38.5066 16.9635 38.8501 16.7488 39.2469 16.6724C39.3858 16.6457 39.5268 16.6169 39.6688 16.5864C39.8194 16.5539 39.9599 16.5218 40.0897 16.4903L40.0908 16.4898C40.8321 16.3146 41.5467 16.0978 42.2288 15.8414C42.9124 15.5845 43.5645 15.2875 44.1803 14.9532C44.5959 14.7294 44.9997 14.4848 45.3906 14.2215C45.7832 13.9571 46.1597 13.6746 46.5181 13.3771C46.9101 13.0518 47.386 12.8964 47.8587 12.9097C48.3308 12.9225 48.7998 13.1036 49.1779 13.4497C50.1227 14.3149 51.1856 15.013 52.383 15.5519C53.581 16.0913 54.9136 16.4711 56.3983 16.6986C56.8203 16.7632 57.1856 16.9737 57.4452 17.2738H57.4446ZM57.1375 26.3204C57.1183 26.613 57.0815 26.9132 57.0264 27.2187C56.9714 27.5258 56.8993 27.8361 56.8107 28.1459C56.6323 28.7564 56.3877 29.3733 56.079 29.9917C55.7708 30.6092 55.3969 31.2319 54.96 31.8552C54.2913 32.8118 53.5228 33.6968 52.7473 34.4862C51.7261 35.5244 50.6926 36.3966 49.8562 37.0472C49.4962 37.3249 49.1661 37.5674 48.8799 37.7714C48.4569 38.0726 48.1268 38.2911 47.9345 38.415L47.8672 38.4582L47.7994 38.4144C47.1344 37.9834 44.8319 36.4239 42.6961 34.1775C40.5512 31.922 38.5734 28.9738 38.5734 25.7702L38.5969 18.35C38.5974 18.114 38.6808 17.8945 38.8196 17.7235C38.9596 17.5516 39.1561 17.4277 39.3836 17.3839C39.5294 17.3555 39.6774 17.3251 39.8269 17.2931C39.9813 17.2594 40.126 17.2268 40.259 17.1948L40.2601 17.1943C41.0324 17.0116 41.7769 16.7857 42.4894 16.5176C43.2019 16.2494 43.8829 15.9397 44.5259 15.5904C44.9617 15.3554 45.3858 15.0985 45.7965 14.8218C46.2083 14.5441 46.6046 14.2471 46.9817 13.9341C47.1003 13.8353 47.2316 13.7611 47.3678 13.7114C47.5094 13.6601 47.6568 13.634 47.8042 13.634C47.9644 13.634 48.1252 13.6644 48.2774 13.7242C48.4248 13.7824 48.5647 13.869 48.6897 13.9833C49.689 14.8982 50.8101 15.6368 52.07 16.2056C53.331 16.775 54.7314 17.1756 56.2889 17.4138C56.5335 17.4512 56.7455 17.5729 56.8961 17.746C57.0467 17.919 57.137 18.1449 57.1375 18.3906L57.1605 25.7697C57.16 25.8621 57.1584 25.9529 57.1546 26.0426C57.1509 26.1388 57.1455 26.2312 57.1386 26.3198L57.1375 26.3204ZM56.7818 27.1749C56.8347 26.8801 56.8705 26.5885 56.8892 26.3027V26.3006C56.8967 26.2055 56.902 26.1163 56.9052 26.033C56.9089 25.9433 56.9105 25.8552 56.9105 25.7697L56.8881 18.3906C56.8876 18.208 56.8203 18.0392 56.7071 17.9094C56.5938 17.7796 56.4347 17.6883 56.2504 17.66C54.6705 17.418 53.2482 17.0116 51.9664 16.4321C50.6835 15.8526 49.5411 15.1001 48.521 14.1659C48.4195 14.0735 48.3057 14.003 48.1855 13.956C48.0627 13.9074 47.9324 13.8834 47.8026 13.8834C47.683 13.8834 47.5639 13.9042 47.4512 13.9448C47.3406 13.9849 47.2348 14.0452 47.1392 14.1243C46.752 14.4458 46.3498 14.7476 45.9349 15.0274C45.5183 15.3084 45.0867 15.5695 44.6434 15.8083C43.9897 16.1634 43.2986 16.478 42.5765 16.7493C41.8528 17.0217 41.0975 17.2509 40.3162 17.4357C40.1629 17.4725 40.0176 17.5056 39.8793 17.5355C39.7345 17.5671 39.5844 17.5975 39.4301 17.6274C39.2613 17.6594 39.1155 17.7513 39.0119 17.879C38.9072 18.0071 38.8453 18.1722 38.8447 18.349L38.8218 25.7692C38.8223 28.8952 40.7669 31.7879 42.8756 34.0055C44.9254 36.1611 47.1302 37.679 47.8667 38.1613C48.0632 38.0331 48.3634 37.8323 48.7351 37.5679C49.0209 37.3644 49.3488 37.1235 49.7029 36.8501C50.534 36.2033 51.56 35.338 52.5694 34.311C53.3374 33.5301 54.0969 32.6553 54.756 31.7121C55.1843 31.1016 55.5518 30.489 55.8557 29.8801C56.1591 29.2723 56.3983 28.6699 56.5714 28.077C56.659 27.771 56.7295 27.4687 56.7824 27.1738L56.7818 27.1749Z" fill="black"/>
  </g>
</symbol>
</svg>
