<svg width="176" height="130" viewBox="0 0 176 130" fill="none" xmlns="http://www.w3.org/2000/svg">
<path d="M0 1.09565V12.7811H30.1268V128.906H43.2732V1.09703H0V1.09565ZM124.705 130C154.283 130 175.828 105.717 175.828 65C175.828 24.2833 154.283 0 124.705 0C95.1268 0 73.7638 24.2833 73.7638 65C73.7638 105.717 95.1254 130 124.705 130ZM124.705 117.949C102.43 117.949 87.0921 99.1428 87.0921 65C87.0921 30.8558 102.43 12.0507 124.705 12.0507C146.98 12.0507 162.318 30.8572 162.318 65C162.318 99.1428 146.98 117.949 124.705 117.949Z" fill="black"/>
<path fill-rule="evenodd" clip-rule="evenodd" d="M143.014 49.5917C135.942 48.142 129.822 45.3202 124.824 41.2057C124.487 40.9265 124.005 40.9182 123.658 41.1807C121.885 42.5221 119.998 43.7344 118.045 44.787C114.34 46.8005 110.241 48.3489 105.861 49.389C105.438 49.489 105.139 49.8667 105.138 50.3013C105.117 56.6238 105.086 66.4499 105.086 67.0026C105.086 79.1311 119.47 90.5611 123.879 93.7744C124.043 93.8953 124.238 93.9564 124.433 93.9564C124.627 93.9564 124.822 93.8966 124.987 93.7758C125.512 93.3926 126.083 92.9663 126.689 92.4969C130.265 89.7168 135.299 85.2967 138.976 80.0323C140.941 77.2328 142.326 74.4791 143.094 71.8435C143.466 70.5479 143.692 69.2925 143.767 68.133L143.774 68.0316C143.802 67.6928 143.816 67.3456 143.816 67.0026C143.816 66.4569 143.766 50.5096 143.766 50.5096C143.764 50.0639 143.45 49.6792 143.014 49.5903V49.5917ZM141.899 67.8775C141.899 67.883 141.891 67.9927 141.891 67.9983C141.824 69.0398 141.622 70.1604 141.288 71.3227C140.579 73.7542 139.283 76.3233 137.438 78.9548C133.894 84.0275 129.008 88.3115 125.537 91.011C125.155 91.3068 124.787 91.5859 124.436 91.847C119.677 88.2948 106.971 77.7925 106.971 67.004C106.971 66.4722 107 57.3626 107.019 51.0442C111.291 49.9708 115.3 48.4239 118.944 46.4423C120.761 45.4619 122.529 44.3468 124.205 43.1206C129.152 47.0394 135.094 49.7778 141.89 51.2761C141.899 54.452 141.937 66.5291 141.937 67.0026C141.937 67.2942 141.924 67.5886 141.901 67.8761L141.899 67.8775Z" fill="black"/>
<path d="M142.951 49.9084C139.39 49.1794 136.069 48.1032 133.008 46.6923C129.946 45.28 127.142 43.5303 124.62 41.4543C124.508 41.3626 124.375 41.3154 124.241 41.3126C124.107 41.3099 123.969 41.3515 123.854 41.439C122.961 42.1139 122.039 42.7582 121.093 43.3651C120.149 43.9719 119.183 44.5427 118.199 45.0717C116.333 46.0854 114.369 46.9825 112.323 47.7546C110.272 48.5295 108.137 49.1807 105.936 49.7043C105.797 49.7376 105.678 49.8154 105.596 49.9195C105.513 50.0264 105.461 50.1611 105.461 50.3028L105.41 67.0027C105.411 71.5075 107.437 75.9276 110.195 79.8547C114.768 86.3702 121.34 91.5249 124.069 93.5134C124.123 93.5523 124.182 93.5815 124.241 93.6009C124.302 93.6204 124.368 93.6315 124.433 93.6315C124.498 93.6315 124.564 93.6218 124.625 93.6023C124.684 93.5829 124.744 93.5537 124.798 93.5134C125.051 93.3301 125.323 93.1288 125.615 92.9108C125.887 92.7066 126.179 92.4845 126.492 92.2428C128.516 90.6681 131.008 88.5685 133.45 86.0911C135.306 84.2067 137.136 82.1043 138.713 79.8491C139.686 78.4591 140.516 77.0843 141.197 75.7304C141.876 74.3806 142.406 73.0517 142.784 71.7561C142.967 71.1145 143.115 70.4882 143.224 69.8855C143.334 69.2787 143.409 68.6844 143.445 68.1136L143.452 68.0095C143.466 67.8303 143.477 67.6623 143.483 67.5082C143.488 67.3582 143.492 67.1888 143.492 67.0041L143.444 50.5125C143.444 50.3667 143.391 50.2292 143.303 50.1223C143.216 50.0153 143.092 49.9376 142.951 49.9084ZM133.279 46.1049C136.295 47.4963 139.571 48.5559 143.08 49.2752C143.374 49.3349 143.627 49.4946 143.805 49.7126C143.982 49.932 144.088 50.2111 144.089 50.5097L144.141 67.0041C144.141 67.1638 144.137 67.3401 144.13 67.5332C144.123 67.7206 144.112 67.897 144.099 68.0581L144.092 68.1581C144.055 68.7482 143.977 69.3662 143.862 70.0008C143.746 70.6368 143.595 71.2839 143.408 71.9338C143.016 73.2725 142.47 74.6389 141.775 76.022C141.079 77.4051 140.233 78.8076 139.243 80.2199C137.642 82.5098 135.788 84.64 133.911 86.5452C131.439 89.0517 128.927 91.1694 126.89 92.7539L126.002 93.4274L125.177 94.037C125.068 94.1175 124.948 94.1772 124.825 94.2175C124.697 94.2592 124.564 94.28 124.433 94.28C124.301 94.28 124.169 94.2592 124.041 94.2175C123.918 94.1772 123.797 94.1161 123.689 94.0356C120.931 92.0248 114.29 86.8146 109.666 80.2268C106.84 76.2025 104.764 71.6588 104.764 67.0027L104.817 50.3014C104.818 50.007 104.92 49.7334 105.09 49.5182C105.263 49.3016 105.506 49.1405 105.789 49.0738C107.969 48.5559 110.077 47.9129 112.096 47.1492C114.118 46.3854 116.055 45.5008 117.892 44.5024C118.862 43.9789 119.814 43.4165 120.745 42.8193C121.675 42.2222 122.585 41.5862 123.465 40.921C123.698 40.7461 123.978 40.66 124.254 40.6655C124.532 40.6711 124.807 40.7683 125.033 40.9544C127.509 42.9929 130.265 44.7135 133.279 46.1035V46.1049ZM142.223 67.9053L142.215 68.0206C142.181 68.551 142.112 69.1037 142.008 69.6745C141.904 70.2452 141.768 70.827 141.6 71.4117C141.237 72.6503 140.729 73.9196 140.076 75.211C139.425 76.5011 138.632 77.8147 137.702 79.1409C136.159 81.3489 134.366 83.4068 132.547 85.2482C130.153 87.6742 127.713 89.728 125.736 91.2666L125.17 91.6985L124.434 92.2498L124.241 92.1068C121.304 89.9155 115.355 85.0885 111.196 79.1715C108.564 75.4277 106.646 71.2436 106.646 67.0055C106.662 61.6008 106.675 56.1976 106.697 50.793L106.94 50.7319C109.066 50.1972 111.124 49.546 113.1 48.7836C115.079 48.0198 116.979 47.1436 118.788 46.1604C119.694 45.6716 120.585 45.1509 121.453 44.6024C122.324 44.0525 123.179 43.4706 124.012 42.8624L124.211 42.7166L124.404 42.8693C126.855 44.8107 129.556 46.4618 132.486 47.8129C135.416 49.1641 138.579 50.2167 141.958 50.961L142.211 51.0165L142.259 67.0041C142.261 67.3027 142.248 67.6068 142.223 67.9053ZM141.569 67.9775L141.577 67.8512C141.6 67.5734 141.612 67.2874 141.612 67.0041L141.566 51.5373C138.242 50.7874 135.119 49.739 132.215 48.4003C129.317 47.0644 126.638 45.4369 124.197 43.5275C123.417 44.0913 122.615 44.6343 121.799 45.1495C120.913 45.7091 120.009 46.2368 119.096 46.7284C117.263 47.7241 115.337 48.6128 113.334 49.3849C111.403 50.1306 109.401 50.7694 107.341 51.2971L107.293 67.0041C107.294 71.0923 109.162 75.1513 111.725 78.7979C115.744 84.5136 121.468 89.21 124.436 91.443L125.337 90.7556C127.302 89.2281 129.721 87.1909 132.086 84.7955C133.884 82.9736 135.653 80.9434 137.173 78.7701C138.088 77.4648 138.864 76.1789 139.5 74.9194C140.135 73.6613 140.629 72.4295 140.977 71.2339C141.141 70.6576 141.275 70.098 141.372 69.5592C141.47 69.0176 141.536 68.4886 141.569 67.9775Z" fill="black"/>
<path fill-rule="evenodd" clip-rule="evenodd" d="M150.115 47.8116C150.108 45.7633 148.623 44.0497 146.585 43.7373C138.807 42.5444 132.612 39.7546 127.643 35.2068C125.795 33.514 123.065 33.4404 121.153 35.0276C119.262 36.5982 117.201 37.9882 115.023 39.1616C111.793 40.9169 108.191 42.2708 104.31 43.1887C103.588 43.3637 102.852 43.5234 102.103 43.6664C100.19 44.0344 98.7983 45.7314 98.7914 47.7046C98.7733 53.4356 98.7317 66.3653 98.7317 67.0027C98.7317 85.9314 122.933 100.897 123.963 101.525C124.113 101.616 124.283 101.662 124.454 101.662C124.623 101.662 124.793 101.616 124.944 101.525C125.04 101.466 127.349 100.053 130.58 97.5545C134.502 94.505 140.043 89.6294 144.174 83.7179C146.543 80.3407 148.236 76.9427 149.205 73.6141C149.702 71.8797 150.008 70.1688 150.115 68.5427C150.155 68.0289 150.176 67.5165 150.176 67.0027C150.176 66.3681 150.135 53.5967 150.117 47.8116H150.115ZM148.234 68.408C148.137 69.9133 147.854 71.4895 147.396 73.092C146.483 76.2178 144.882 79.4298 142.631 82.6389C138.635 88.3574 133.244 93.0997 129.426 96.0672C127.137 97.8363 125.292 99.0653 124.454 99.6069C121.01 97.3753 100.615 83.4596 100.615 67.0027C100.615 66.3653 100.656 53.4398 100.674 47.7102C100.679 46.6368 101.428 45.7133 102.459 45.5161C103.239 45.3648 104.003 45.1995 104.75 45.019C108.788 44.0636 112.549 42.6499 115.922 40.8183C118.206 39.588 120.371 38.1271 122.358 36.4774C122.925 36.008 123.607 35.7747 124.29 35.7747C125.033 35.7747 125.778 36.0497 126.376 36.5968C131.626 41.4057 138.144 44.3496 146.303 45.5994C147.419 45.7702 148.232 46.7048 148.234 47.8199C148.252 53.6022 148.293 66.3709 148.293 67.0055C148.293 67.4693 148.275 67.9331 148.236 68.4108L148.234 68.408Z" fill="black"/>
<path d="M149.792 47.8116C149.79 46.8687 149.445 46.0022 148.868 45.3356C148.291 44.6691 147.478 44.2025 146.537 44.0581C142.62 43.4582 139.098 42.4542 135.928 41.0266C132.756 39.5991 129.937 37.7453 127.425 35.4456C126.562 34.6541 125.491 34.2403 124.413 34.2111C123.337 34.182 122.253 34.5347 121.358 35.2776C120.4 36.0733 119.403 36.8204 118.376 37.5134C117.344 38.2091 116.275 38.8562 115.175 39.4477C113.546 40.3323 111.823 41.1169 110.02 41.7946C108.216 42.4722 106.332 43.0443 104.381 43.5054C103.993 43.5984 103.623 43.6831 103.274 43.7595C102.914 43.8373 102.542 43.9136 102.162 43.9859C101.281 44.1553 100.52 44.6302 99.9801 45.2898C99.4371 45.9508 99.1149 46.7965 99.1122 47.7061L99.1024 50.8777C99.083 57.0433 99.0538 65.9446 99.0538 67.0041C99.0538 73.3669 101.83 79.2868 105.531 84.3512C112.74 94.2162 123.452 100.837 124.129 101.25C124.177 101.279 124.23 101.302 124.283 101.318C124.336 101.333 124.393 101.34 124.45 101.34C124.508 101.34 124.563 101.333 124.616 101.318C124.67 101.302 124.723 101.28 124.77 101.25C124.819 101.221 125.413 100.857 126.401 100.189C127.385 99.5208 128.764 98.5487 130.378 97.3004C132.598 95.5729 135.338 93.2594 138.042 90.5085C140.097 88.4158 142.133 86.0689 143.905 83.5346C145.079 81.8585 146.087 80.1783 146.921 78.5036C147.754 76.8316 148.412 75.168 148.89 73.528C149.136 72.6671 149.334 71.8158 149.484 70.9854C149.633 70.1522 149.735 69.3287 149.787 68.5247V68.5192C149.808 68.2539 149.823 68.0012 149.833 67.7623C149.842 67.5277 149.847 67.2749 149.847 67.0041L149.79 47.813L149.792 47.8116ZM149.356 44.9121C150.033 45.6911 150.434 46.7062 150.438 47.8116L150.498 67.0028C150.498 67.2458 150.492 67.5082 150.481 67.786C150.47 68.0595 150.455 68.3206 150.435 68.5691C150.381 69.3912 150.277 70.2369 150.123 71.0979C149.969 71.9602 149.765 72.8323 149.516 73.703C149.024 75.3902 148.351 77.0899 147.504 78.791C146.657 80.4921 145.632 82.2015 144.438 83.904C142.641 86.473 140.583 88.8476 138.507 90.9612C135.775 93.7412 133.013 96.0728 130.779 97.81C129.16 99.0598 127.767 100.043 126.766 100.721C125.77 101.394 125.163 101.766 125.111 101.8C125.011 101.862 124.904 101.908 124.794 101.938C124.68 101.97 124.566 101.986 124.452 101.986C124.338 101.986 124.223 101.969 124.111 101.938C124.001 101.908 123.895 101.862 123.794 101.8C123.111 101.384 112.295 94.6966 105.011 84.7317C101.237 79.5673 98.4067 73.5225 98.4067 67.0028L98.4678 47.7047C98.4706 46.641 98.8483 45.6508 99.4829 44.8788C100.118 44.1053 101.01 43.547 102.042 43.3485C102.403 43.279 102.77 43.204 103.139 43.1249C103.531 43.0402 103.896 42.9569 104.234 42.8749L104.236 42.8735C106.164 42.4181 108.022 41.8543 109.795 41.1877C111.573 40.5198 113.268 39.7477 114.869 38.8784C115.95 38.2965 116.999 37.6605 118.016 36.9759C119.037 36.2886 120.016 35.554 120.947 34.7805C121.967 33.9348 123.204 33.5307 124.433 33.5654C125.66 33.5987 126.88 34.0695 127.863 34.9693C130.319 37.219 133.083 39.0339 136.196 40.4351C139.311 41.8376 142.776 42.8249 146.636 43.4165C147.733 43.5845 148.683 44.1317 149.358 44.9121H149.356ZM148.558 68.4331C148.508 69.194 148.412 69.9745 148.269 70.7688C148.126 71.5672 147.939 72.3741 147.708 73.1795C147.244 74.7667 146.608 76.3706 145.806 77.9786C145.004 79.5839 144.032 81.2031 142.896 82.8237C141.158 85.3107 139.159 87.6117 137.143 89.6642C134.488 92.3637 131.801 94.6314 129.626 96.3227C128.69 97.0448 127.832 97.6753 127.088 98.2057C125.988 98.989 125.13 99.5569 124.63 99.8791L124.455 99.9916L124.279 99.8777C122.55 98.757 116.563 94.7022 111.01 88.8615C105.433 82.9972 100.291 75.3319 100.291 67.0028L100.352 47.7102C100.354 47.0964 100.57 46.5257 100.931 46.0813C101.295 45.6342 101.806 45.312 102.398 45.1981C102.777 45.1245 103.161 45.0454 103.55 44.9621C103.952 44.8746 104.328 44.7899 104.674 44.7066L104.676 44.7052C106.684 44.2303 108.62 43.6429 110.473 42.9458C112.325 42.2487 114.096 41.4432 115.768 40.5351C116.901 39.924 118.003 39.2561 119.071 38.5368C120.142 37.8147 121.172 37.0426 122.153 36.2288C122.461 35.9719 122.803 35.7789 123.157 35.6498C123.525 35.5165 123.908 35.4484 124.291 35.4484C124.708 35.4484 125.126 35.5276 125.522 35.6831C125.905 35.8345 126.269 36.0594 126.594 36.3566C129.192 38.7354 132.107 40.6559 135.382 42.1348C138.661 43.6151 142.302 44.6566 146.351 45.2759C146.987 45.3731 147.539 45.6897 147.93 46.1397C148.322 46.5896 148.557 47.177 148.558 47.8158L148.618 67.0014C148.616 67.2416 148.612 67.4777 148.602 67.711C148.593 67.9609 148.579 68.2012 148.561 68.4317L148.558 68.4331ZM147.633 70.6549C147.771 69.8884 147.864 69.1302 147.912 68.3872V68.3817C147.932 68.1345 147.945 67.9026 147.954 67.686C147.964 67.4527 147.968 67.2235 147.968 67.0014L147.909 47.8158C147.908 47.3408 147.733 46.902 147.439 46.5646C147.144 46.2271 146.73 45.9897 146.251 45.9161C142.144 45.287 138.446 44.2303 135.113 42.7236C131.777 41.2169 128.807 39.2603 126.155 36.8315C125.891 36.5913 125.595 36.408 125.283 36.2858C124.963 36.1594 124.624 36.0969 124.287 36.0969C123.976 36.0969 123.666 36.1511 123.373 36.2566C123.086 36.3608 122.811 36.5177 122.562 36.7232C121.556 37.5592 120.51 38.3438 119.431 39.0714C118.348 39.8018 117.226 40.4809 116.073 41.1016C114.373 42.0251 112.577 42.843 110.699 43.5484C108.817 44.2566 106.854 44.8524 104.822 45.3328C104.424 45.4287 104.046 45.5148 103.686 45.5925C103.31 45.6745 102.92 45.7536 102.519 45.8314C102.08 45.9147 101.701 46.1535 101.431 46.4854C101.159 46.8187 100.998 47.2478 100.997 47.7074L100.937 67C100.938 75.1278 105.994 82.6487 111.477 88.4144C116.806 94.019 122.539 97.9655 124.454 99.2195C124.965 98.8862 125.745 98.3641 126.712 97.6767C127.455 97.1476 128.307 96.5213 129.228 95.8103C131.389 94.1287 134.056 91.8791 136.681 89.2087C138.678 87.1785 140.652 84.9039 142.366 82.4515C143.48 80.8643 144.435 79.2715 145.225 77.6884C146.014 76.1081 146.636 74.5417 147.086 73.0003C147.314 72.2046 147.497 71.4187 147.634 70.6521L147.633 70.6549Z" fill="black"/>
</svg>
