<svg width="30" height="30" viewBox="0 0 30 30" fill="none" xmlns="http://www.w3.org/2000/svg">
<path d="M8.70793 0C3.91226 0 0 3.91226 0 8.70793V21.2921C0 26.0877 3.91226 30 8.70793 30H21.2921C26.0877 30 30 26.0877 30 21.2921V8.70793C30 3.91226 26.0877 0 21.2921 0H8.70793ZM8.70793 2.30769H21.2921C24.8392 2.30769 27.6923 5.15625 27.6923 8.70793V21.2921C27.6923 24.8392 24.8438 27.6923 21.2921 27.6923H8.70793C5.16076 27.6923 2.30769 24.8438 2.30769 21.2921V8.70793C2.30769 5.16076 5.15625 2.30769 8.70793 2.30769ZM23.6538 4.61538C22.6983 4.61538 21.9231 5.39062 21.9231 6.34615C21.9231 7.30168 22.6983 8.07692 23.6538 8.07692C24.6094 8.07692 25.3846 7.30168 25.3846 6.34615C25.3846 5.39062 24.6094 4.61538 23.6538 4.61538ZM15 6.92308C10.5514 6.92308 6.92308 10.5514 6.92308 15C6.92308 19.4486 10.5514 23.0769 15 23.0769C19.4486 23.0769 23.0769 19.4486 23.0769 15C23.0769 10.5514 19.4486 6.92308 15 6.92308ZM15 9.23077C18.2001 9.23077 20.7692 11.7999 20.7692 15C20.7692 18.2001 18.2001 20.7692 15 20.7692C11.7999 20.7692 9.23077 18.2001 9.23077 15C9.23077 11.7999 11.7999 9.23077 15 9.23077Z" fill="white"/>
</svg>
