<svg width="229" height="130" viewBox="0 0 229 130" fill="none" xmlns="http://www.w3.org/2000/svg">
<path d="M51.7411 55.2407L88.1997 9.39138V0.000244141H5.33909V11.7848H71.2592L35.537 56.5298V66.2888H44.7439C68.6815 66.2888 79.5455 76.4164 79.5455 91.8835C79.5455 107.903 67.7609 117.847 46.4015 117.847C29.6452 117.847 14.7302 111.586 6.44447 102.932L0 113.428C9.94331 123.555 27.8044 130 46.402 130C77.521 130 93.1724 113.428 93.1724 91.884C93.1724 71.261 79.3623 56.7145 51.7421 55.2412L51.7411 55.2407Z" fill="black"/>
<path d="M108.858 126.685H160.437C200.975 126.685 228.303 100.624 228.303 63.3424C228.303 26.0612 200.975 0 160.437 0H108.858V126.685ZM122.25 115.102V11.5824H159.712C193.374 11.5824 215.091 32.9377 215.091 63.3419C215.091 93.7466 193.374 115.101 159.712 115.101H122.25V115.102Z" fill="black"/>
<path fill-rule="evenodd" clip-rule="evenodd" d="M200.843 84.5756L186.813 76.4607V53.1774L166.639 41.498V26.0262H163.075V41.498L142.825 53.1774V76.5362L128.794 84.5751L130.615 87.6844L144.645 79.5696L164.819 91.249L184.992 79.5696L199.023 87.6844L200.843 84.5751V84.5756ZM181.428 54.1637L164.819 63.7955L148.21 54.1637L164.819 44.6079L181.428 54.1637ZM166.639 66.9049L183.248 57.2731V76.4607L166.639 86.0926V66.9049ZM146.39 57.2731L162.999 66.9049V86.0926L146.39 76.4607V57.2731Z" fill="black"/>
</svg>
