<svg fill="none" xmlns="http://www.w3.org/2000/svg">
  <symbol viewBox="0 0 229 130" id="maket-desktop">
    <g>
      <path d="M51.7411 55.2407L88.1997 9.39138V0.000244141H5.33909V11.7848H71.2592L35.537 56.5298V66.2888H44.7439C68.6815 66.2888 79.5455 76.4164 79.5455 91.8835C79.5455 107.903 67.7609 117.847 46.4015 117.847C29.6452 117.847 14.7302 111.586 6.44447 102.932L0 113.428C9.94331 123.555 27.8044 130 46.402 130C77.521 130 93.1724 113.428 93.1724 91.884C93.1724 71.261 79.3623 56.7145 51.7421 55.2412L51.7411 55.2407Z" fill="black"/>
      <path d="M108.858 126.685H160.437C200.975 126.685 228.303 100.624 228.303 63.3424C228.303 26.0612 200.975 0 160.437 0H108.858V126.685ZM122.25 115.102V11.5824H159.712C193.374 11.5824 215.091 32.9377 215.091 63.3419C215.091 93.7466 193.374 115.101 159.712 115.101H122.25V115.102Z" fill="black"/>
      <path fill-rule="evenodd" clip-rule="evenodd" d="M200.843 84.5756L186.813 76.4607V53.1774L166.639 41.498V26.0262H163.075V41.498L142.825 53.1774V76.5362L128.794 84.5751L130.615 87.6844L144.645 79.5696L164.819 91.249L184.992 79.5696L199.023 87.6844L200.843 84.5751V84.5756ZM181.428 54.1637L164.819 63.7955L148.21 54.1637L164.819 44.6079L181.428 54.1637ZM166.639 66.9049L183.248 57.2731V76.4607L166.639 86.0926V66.9049ZM146.39 57.2731L162.999 66.9049V86.0926L146.39 76.4607V57.2731Z" fill="black"/>
    </g>
  </symbol>
  <symbol viewBox="0 0 143 83" id="maket-tablet">
    <g>
      <path d="M32.3366 35.4872L55.1221 6.8328V0.963623H3.33677V8.32864H44.5348L22.2095 36.2928V42.392H27.9636C42.9239 42.392 49.7135 48.7214 49.7135 58.3879C49.7135 68.3998 42.3485 74.6141 28.9995 74.6141C18.5273 74.6141 9.20595 70.7013 4.0276 65.2927L0 71.8523C6.21427 78.1818 17.3769 82.2094 28.9998 82.2094C48.4483 82.2094 58.2299 71.8523 58.2299 58.3882C58.2299 45.4994 49.599 36.4083 32.3372 35.4875L32.3366 35.4872Z" fill="black"/>
      <path d="M68.0327 80.1375H100.268C125.604 80.1375 142.683 63.8503 142.683 40.5504C142.683 17.2507 125.604 0.963257 100.268 0.963257H68.0327V80.1375ZM76.4025 72.8985V8.20191H99.8154C120.853 8.20191 134.426 21.5483 134.426 40.55C134.426 59.5521 120.853 72.8982 99.8154 72.8982H76.4025V72.8985Z" fill="black"/>
      <path fill-rule="evenodd" clip-rule="evenodd" d="M125.521 53.8205L116.752 48.7489V34.1975L104.144 26.8983V17.2289H101.917V26.8983L89.2615 34.1975V48.7961L80.4927 53.8201L81.6303 55.7634L90.3991 50.6918L103.007 57.9911L115.615 50.6918L124.384 55.7634L125.521 53.8201V53.8205ZM113.387 34.814L103.007 40.8335L92.6268 34.814L103.007 28.8418L113.387 34.814ZM104.144 42.7768L114.525 36.7572V48.7489L104.144 54.7685V42.7768ZM91.4892 36.7572L101.869 42.7768V54.7685L91.4892 48.7489V36.7572Z" fill="black"/>
    </g>
  </symbol>
  <symbol viewBox="0 0 88 50" id="maket-tablet-min">
    <g>
      <path d="M19.9003 21.2466L33.9229 3.61233V0.000366211H2.05349V4.53289H27.4073L13.668 21.7424V25.4959H17.2091C26.4159 25.4959 30.5943 29.3911 30.5943 35.34C30.5943 41.5014 26.0618 45.3258 17.8467 45.3258C11.402 45.3258 5.66546 42.9178 2.47864 39.5893L0 43.6262C3.82434 47.5214 10.694 50 17.8469 50C29.8157 50 35.8354 43.6262 35.8354 35.3402C35.8354 27.4083 30.5239 21.8135 19.9007 21.2468L19.9003 21.2466Z" fill="black"/>
      <path d="M41.8682 48.7248H61.7061C77.298 48.7248 87.8086 38.7015 87.8086 24.3624C87.8086 10.0235 77.298 0 61.7061 0H41.8682V48.7248ZM47.0191 44.2699V4.45476H61.4276C74.3745 4.45476 82.7272 12.6683 82.7272 24.3622C82.7272 36.0563 74.3745 44.2697 61.4276 44.2697H47.0191V44.2699Z" fill="black"/>
      <path fill-rule="evenodd" clip-rule="evenodd" d="M77.2472 32.5289L71.8508 29.4078V20.4527L64.0918 15.9607V10.01H62.7208V15.9607L54.9326 20.4527V29.4369L49.5361 32.5287L50.2362 33.7246L55.6327 30.6035L63.3917 35.0956L71.1507 30.6035L76.5471 33.7246L77.2472 32.5287V32.5289ZM69.7797 20.8321L63.3917 24.5366L57.0036 20.8321L63.3917 17.1568L69.7797 20.8321ZM64.0918 25.7325L70.4798 22.028V29.4078L64.0918 33.1124V25.7325ZM56.3035 22.028L62.6916 25.7325V33.1124L56.3035 29.4078V22.028Z" fill="black"/>
    </g>
  </symbol>
</svg>
