<svg width="30" height="30" viewBox="0 0 30 30" fill="none" xmlns="http://www.w3.org/2000/svg">
<path d="M24.8939 20.3053C24.8697 20.2531 24.8471 20.2098 24.8262 20.1751C24.4792 19.5501 23.8161 18.7831 22.8372 17.8736L22.8166 17.8528L22.8062 17.8426L22.7957 17.8321H22.7852C22.341 17.4086 22.0597 17.1239 21.9419 16.9781C21.7263 16.7004 21.678 16.4193 21.7959 16.1345C21.8791 15.9193 22.1917 15.4649 22.733 14.7705C23.0178 14.4026 23.2433 14.1077 23.4098 13.8855C24.6109 12.2887 25.1316 11.2684 24.9719 10.824L24.9098 10.7202C24.8681 10.6577 24.7606 10.6005 24.5872 10.5483C24.4134 10.4963 24.1914 10.4877 23.9206 10.5223L20.9216 10.5431C20.8731 10.5258 20.8037 10.5275 20.7133 10.5483C20.623 10.5692 20.5779 10.5796 20.5779 10.5796L20.5257 10.6057L20.4843 10.6371C20.4495 10.6578 20.4114 10.6942 20.3697 10.7463C20.3282 10.7982 20.2935 10.8591 20.2658 10.9285C19.9393 11.7685 19.5681 12.5495 19.1515 13.2714C18.8946 13.7019 18.6587 14.075 18.4432 14.3909C18.2281 14.7066 18.0476 14.9393 17.9019 15.0884C17.756 15.2377 17.6244 15.3573 17.5061 15.4477C17.388 15.538 17.2979 15.5762 17.2355 15.5623C17.173 15.5483 17.1141 15.5344 17.0583 15.5206C16.9612 15.4581 16.883 15.373 16.8241 15.2654C16.765 15.1578 16.7252 15.0224 16.7043 14.8593C16.6836 14.696 16.6714 14.5556 16.6679 14.4376C16.6646 14.3196 16.6661 14.1528 16.6732 13.9377C16.6804 13.7224 16.6836 13.5767 16.6836 13.5003C16.6836 13.2365 16.6888 12.9501 16.6991 12.6412C16.7096 12.3323 16.7181 12.0875 16.7252 11.9072C16.7323 11.7267 16.7356 11.5357 16.7356 11.3344C16.7356 11.1331 16.7233 10.9752 16.6991 10.8606C16.6752 10.7461 16.6384 10.635 16.59 10.5273C16.5413 10.4197 16.4701 10.3365 16.3766 10.2774C16.2829 10.2184 16.1664 10.1716 16.0277 10.1368C15.6598 10.0535 15.1912 10.0085 14.6218 10.0015C13.3307 9.98762 12.501 10.071 12.1331 10.2515C11.9873 10.3278 11.8554 10.432 11.7374 10.5638C11.6125 10.7166 11.595 10.7999 11.6853 10.8137C12.1018 10.8761 12.3968 11.0253 12.5703 11.2613L12.6329 11.3864C12.6815 11.4766 12.7301 11.6364 12.7787 11.8654C12.8273 12.0945 12.8586 12.3479 12.8724 12.6254C12.907 13.1323 12.907 13.5662 12.8724 13.9271C12.8376 14.2882 12.8048 14.5693 12.7735 14.7706C12.7422 14.9719 12.6953 15.1351 12.6329 15.26C12.5703 15.3849 12.5287 15.4613 12.5079 15.489C12.487 15.5167 12.4697 15.5342 12.4559 15.5411C12.3656 15.5756 12.2718 15.5933 12.1747 15.5933C12.0774 15.5933 11.9595 15.5446 11.8206 15.4474C11.6819 15.3501 11.5378 15.2166 11.3885 15.0465C11.2393 14.8763 11.0709 14.6386 10.8834 14.3331C10.696 14.0277 10.5016 13.6667 10.3003 13.2502L10.1338 12.9482C10.0296 12.7538 9.88738 12.4709 9.70688 12.0996C9.52627 11.7281 9.36663 11.3688 9.22785 11.0217C9.17237 10.8759 9.08904 10.7649 8.97798 10.6885L8.92586 10.6572C8.89121 10.6295 8.83559 10.6 8.75929 10.5687C8.68288 10.5373 8.60315 10.5149 8.51977 10.501L5.66657 10.5218C5.37501 10.5218 5.17718 10.5878 5.07302 10.7197L5.03133 10.7821C5.0105 10.8169 5 10.8724 5 10.9488C5 11.0252 5.02083 11.1189 5.06251 11.2299C5.47903 12.2088 5.93198 13.1529 6.42137 14.0623C6.91075 14.9717 7.33602 15.7043 7.69692 16.2593C8.05789 16.8148 8.42582 17.339 8.80072 17.8317C9.17562 18.3246 9.42378 18.6405 9.5452 18.7793C9.66676 18.9183 9.76224 19.0223 9.83165 19.0917L10.092 19.3416C10.2586 19.5082 10.5033 19.7078 10.8261 19.9403C11.149 20.173 11.5065 20.402 11.8987 20.6278C12.291 20.8532 12.7474 21.0372 13.2681 21.1795C13.7887 21.3219 14.2955 21.3791 14.7884 21.3515H15.9859C16.2288 21.3305 16.4128 21.2541 16.5379 21.1223L16.5793 21.0701C16.6072 21.0287 16.6333 20.9643 16.6573 20.8777C16.6817 20.7909 16.6938 20.6953 16.6938 20.5914C16.6867 20.2929 16.7094 20.0239 16.7613 19.7844C16.8132 19.545 16.8724 19.3645 16.9386 19.243C17.0047 19.1215 17.0793 19.019 17.1624 18.936C17.2456 18.8527 17.3049 18.8022 17.3397 18.7849C17.3743 18.7674 17.4019 18.7556 17.4227 18.7484C17.5893 18.6929 17.7854 18.7467 18.0112 18.91C18.2369 19.0731 18.4485 19.2746 18.6465 19.514C18.8444 19.7536 19.0821 20.0224 19.3597 20.3209C19.6375 20.6194 19.8804 20.8414 20.0886 20.9874L20.2968 21.1123C20.4358 21.1957 20.6163 21.2721 20.8385 21.3415C21.0603 21.4109 21.2546 21.4282 21.4215 21.3935L24.0872 21.352C24.3508 21.352 24.556 21.3083 24.7015 21.2217C24.8473 21.1349 24.9339 21.0393 24.9619 20.9353C24.9897 20.8312 24.9912 20.7131 24.9672 20.5811C24.9425 20.4494 24.9181 20.3573 24.8939 20.3053Z" fill="white"/>
<rect x="1" y="1" width="28" height="28" rx="7" stroke="white" stroke-width="2"/>
</svg>
